<?xml version="1.0" encoding="UTF-8" standalone="no"?>
<svg width="120px" height="82px" viewBox="0 0 120 82" version="1.1" xmlns="http://www.w3.org/2000/svg" xmlns:xlink="http://www.w3.org/1999/xlink">
    <!-- Generator: Sketch 42 (36781) - http://www.bohemiancoding.com/sketch -->
    <title>camera</title>
    <desc>Created with Sketch.</desc>
    <defs></defs>
    <g id="camera" stroke="none" stroke-width="1" fill="none" fill-rule="evenodd" stroke-linecap="round">
        <path d="M1.92,9.28216227 C1.92,5.22167517 5.20904624,1.93 9.27381857,1.93 L110.716181,1.93 C114.777583,1.93 118.07,5.22566521 118.07,9.28216227 L118.07,72.7278377 C118.07,76.7883248 114.780954,80.08 110.716181,80.08 L9.27381857,80.08 C5.21241672,80.08 1.92,76.7843348 1.92,72.7278377 L1.92,9.28216227 Z M60.67,68.21 C74.9907436,68.21 86.6,57.8095747 86.6,44.98 C86.6,32.1504253 74.9907436,21.75 60.67,21.75 C46.3492564,21.75 34.74,32.1504253 34.74,44.98 C34.74,57.8095747 46.3492564,68.21 60.67,68.21 Z M60.67,61.4 C70.7933795,61.4 79,54.0485156 79,44.98 C79,35.9114844 70.7933795,28.56 60.67,28.56 C50.5466205,28.56 42.34,35.9114844 42.34,44.98 C42.34,54.0485156 50.5466205,61.4 60.67,61.4 Z M14.22,11.5286116 C14.22,10.5021288 15.0592397,9.67 16.0874564,9.67 L35.1725436,9.67 C36.2039113,9.67 37.04,10.5072477 37.04,11.5286116 L37.04,17.6313884 C37.04,18.6578712 36.2007603,19.49 35.1725436,19.49 L16.0874564,19.49 C15.0560887,19.49 14.22,18.6527523 14.22,17.6313884 L14.22,11.5286116 Z" id="Combined-Shape" stroke="#231F20" stroke-width="3"></path>
    </g>
</svg>
