<?xml version="1.0" encoding="UTF-8" standalone="no"?>
<svg width="40px" height="24px" viewBox="0 0 40 24" version="1.1" xmlns="http://www.w3.org/2000/svg" xmlns:xlink="http://www.w3.org/1999/xlink">
    <!-- Generator: Sketch 42 (36781) - http://www.bohemiancoding.com/sketch -->
    <title>camera</title>
    <desc>Created By ProctorU Tech Team</desc>
    <defs></defs>
    <g stroke="none" stroke-width="1" fill="none" fill-rule="evenodd">
        <g fill="#000000">
            <path d="M4,4.53300941 C4,4.23863644 4.23774412,4 4.54665103,4 L10.1333318,4 C10.4352388,4 10.6799828,4.23569352 10.6799828,4.53300941 L10.6799828,6.23141798 C10.6799828,6.52579094 10.4422387,6.76442738 10.1333318,6.76442738 L4.54665103,6.76442738 C4.244744,6.76442738 4,6.52873386 4,6.23141798 L4,4.53300941 Z M20.6528806,16.5456681 C23.2225956,16.5456681 25.3057612,14.6326551 25.3057612,12.272834 C25.3057612,9.91301296 23.2225956,8 20.6528806,8 C18.0831656,8 16,9.91301296 16,12.272834 C16,14.6326551 18.0831656,16.5456681 20.6528806,16.5456681 Z M20.696384,20.1366611 C15.9116136,20.1366611 12,16.5442496 12,12.0683305 C12,7.5924114 15.9116136,4 20.696384,4 C25.4811544,4 29.392768,7.5924114 29.392768,12.0683305 C29.392768,16.5442496 25.4811544,20.1366611 20.696384,20.1366611 Z M20.696384,18.1366611 C24.4128046,18.1366611 27.392768,15.3998737 27.392768,12.0683305 C27.392768,8.73678734 24.4128046,6 20.696384,6 C16.9799634,6 14,8.73678734 14,12.0683305 C14,15.3998737 16.9799634,18.1366611 20.696384,18.1366611 Z M2,3.14950916 L2,20.8504908 C2,21.4882233 2.50955503,22 3.13817697,22 L36.861823,22 C37.4886277,22 38,21.4860905 38,20.8504908 L38,3.14950916 C38,2.51177674 37.490445,2 36.861823,2 L3.13817697,2 C2.51137227,2 2,2.51390952 2,3.14950916 Z M0,3.14950916 C0,1.41154985 1.40458081,0 3.13817697,0 L36.861823,0 C38.596967,0 40,1.40915038 40,3.14950916 L40,20.8504908 C40,22.5884502 38.5954192,24 36.861823,24 L3.13817697,24 C1.40303302,24 0,22.5908496 0,20.8504908 L0,3.14950916 Z" id="Combined-Shape"></path>
        </g>
    </g>
</svg>
