<?xml version="1.0" encoding="UTF-8" standalone="no"?>
<svg width="40px" height="24px" viewBox="0 0 40 24" version="1.1" xmlns="http://www.w3.org/2000/svg" xmlns:xlink="http://www.w3.org/1999/xlink">
    <!-- Generator: Sketch 42 (36781) - http://www.bohemiancoding.com/sketch -->
    <title>challenge-questions</title>
    <desc>Created By ProctorU Tech Team</desc>
    <defs></defs>
    <g stroke="none" stroke-width="1" fill="none" fill-rule="evenodd">
        <g fill-rule="nonzero" fill="#000000">
            <path d="M28.5932286,5.80858221 L28.5932286,7.3785822 L13.9585019,7.3785822 L13.9585019,5.80858221 L28.5932286,5.80858221 Z M28.7040336,11.4253043 L28.7040336,12.9953043 L14.0693069,12.9953043 L14.0693069,11.4253043 L28.7040336,11.4253043 Z M25.9566939,17.0532767 L25.9566939,18.6232767 L14.0693069,18.6232767 L14.0693069,17.0532767 L25.9566939,17.0532767 Z M7.69935428,19.7917758 C6.37379072,19.7917758 5.28633018,18.8273599 5.28633018,17.6195346 C5.28633018,16.4117094 6.37379072,15.4472935 7.69935428,15.4472935 C9.02491784,15.4472935 10.1123784,16.4117094 10.1123784,17.6195346 C10.1123784,18.8273599 9.02491784,19.7917758 7.69935428,19.7917758 Z M7.69935428,18.9764558 C8.56740496,18.9764558 9.26019201,18.3620566 9.26019201,17.6195346 C9.26019201,16.8770127 8.56740496,16.2626135 7.69935428,16.2626135 C6.83130361,16.2626135 6.13851655,16.8770127 6.13851655,17.6195346 C6.13851655,18.3620566 6.83130361,18.9764558 7.69935428,18.9764558 Z M7.69935428,14.1638034 C6.37379072,14.1638034 5.28633018,13.1993875 5.28633018,11.9915623 C5.28633018,10.783737 6.37379072,9.81932115 7.69935428,9.81932115 C9.02491784,9.81932115 10.1123784,10.783737 10.1123784,11.9915623 C10.1123784,13.1993875 9.02491784,14.1638034 7.69935428,14.1638034 Z M7.69935428,13.3484834 C8.56740496,13.3484834 9.26019201,12.7340843 9.26019201,11.9915623 C9.26019201,11.2490403 8.56740496,10.6346411 7.69935428,10.6346411 C6.83130361,10.6346411 6.13851655,11.2490403 6.13851655,11.9915623 C6.13851655,12.7340843 6.83130361,13.3484834 7.69935428,13.3484834 Z M7.69935428,8.53583099 C6.37379072,8.53583099 5.28633018,7.5714151 5.28633018,6.36358987 C5.28633018,5.15576465 6.37379072,4.19134876 7.69935428,4.19134876 C9.02491784,4.19134876 10.1123784,5.15576465 10.1123784,6.36358987 C10.1123784,7.5714151 9.02491784,8.53583099 7.69935428,8.53583099 Z M7.69935428,7.72051102 C8.56740496,7.72051102 9.26019201,7.10611187 9.26019201,6.36358987 C9.26019201,5.62106788 8.56740496,5.00666873 7.69935428,5.00666873 C6.83130361,5.00666873 6.13851655,5.62106788 6.13851655,6.36358987 C6.13851655,7.10611187 6.83130361,7.72051102 7.69935428,7.72051102 Z M39.6947049,21.4048041 C39.6947049,22.7117165 38.400798,23.7269505 36.8138877,23.7399154 L29.6911251,23.7399154 L29.6911251,17.9547598 C29.6911251,16.6459061 30.9891578,15.6196486 32.5652779,15.6196486 L39.6947049,15.6196486 L39.6947049,21.4048041 Z M36.1295397,22.5565068 C37.4278996,22.5458916 38.3916897,22.1407086 38.3916897,21.1824324 L38.3916897,16.5792409 L32.5652779,16.5792409 C31.2784613,16.5792409 30.48424,16.9939803 30.48424,17.9547598 L30.48424,22.5565068 L36.1295397,22.5565068 Z M32.5652779,16.1896486 C31.2829062,16.1896486 30.2644574,16.9931873 30.2644574,17.9459736 L30.2644574,23.7399154 L3.29485571,23.7399154 C1.7224384,23.7399154 0.420702935,22.7076794 0.420702935,21.4048041 L0.420702935,2.59649795 C0.420702935,1.28764422 1.71873562,0.261386722 3.29485571,0.261386722 L36.8138877,0.261386722 C38.386305,0.261386722 39.6880405,1.29362268 39.6880405,2.59649795 L39.6880405,16.1896486 L32.5652779,16.1896486 Z M29.1587838,17.8315306 C29.1587838,16.5553982 30.7832078,15.3478674 32.3244523,15.3478674 L38.3214738,15.3478674 L38.3214738,3.21368243 C38.3214738,2.27681645 37.3198355,1.48254827 36.0616743,1.48254827 L3.92377534,1.48254827 C2.66172898,1.48254827 1.66397577,2.27139721 1.66397577,3.21368243 L1.66397577,20.7577805 C1.66397577,21.6946465 2.66561406,22.4889147 3.92377534,22.4889147 L29.1587838,22.4889147 L29.1587838,17.8315306 Z" id="Combined-Shape"></path>
        </g>
    </g>
</svg>
