<?xml version="1.0" encoding="UTF-8" standalone="no"?>
<svg width="121px" height="82px" viewBox="0 0 121 82" version="1.1" xmlns="http://www.w3.org/2000/svg" xmlns:xlink="http://www.w3.org/1999/xlink">
    <!-- Generator: Sketch 42 (36781) - http://www.bohemiancoding.com/sketch -->
    <title>Test</title>
    <desc>Created ProctorU Dev Team</desc>
    <defs></defs>
    <g id="Page-1" stroke="none" stroke-width="1" fill="none" fill-rule="evenodd" stroke-linecap="square">
        <path d="M98,54.33 L118.52,54.33 L118.52,8.89 C118.52,5.04 115.04,1.89 110.75,1.89 L10.16,1.89 C5.87,1.89 2.39,5.01 2.39,8.89 L2.39,73.11 C2.39,76.96 5.87,80.11 10.16,80.11 L90.24,80.11 L90.24,61.3 C90.24,57.45 93.72,54.33 98,54.33 Z M118.54,73.11 L118.54,54.33 L98,54.33 C93.71,54.33 90.23,57.45 90.23,61.33 L90.23,80.11 L110.75,80.11 C115.05,80.07 118.54,77 118.54,73.11 Z M22.45,27.67 C26.5866128,27.67 29.94,24.6658307 29.94,20.96 C29.94,17.2541693 26.5866128,14.25 22.45,14.25 C18.3133872,14.25 14.96,17.2541693 14.96,20.96 C14.96,24.6658307 18.3133872,27.67 22.45,27.67 Z M22.45,47.68 C26.5866128,47.68 29.94,44.6758307 29.94,40.97 C29.94,37.2641693 26.5866128,34.26 22.45,34.26 C18.3133872,34.26 14.96,37.2641693 14.96,40.97 C14.96,44.6758307 18.3133872,47.68 22.45,47.68 Z M22.45,67.69 C26.5866128,67.69 29.94,64.6858307 29.94,60.98 C29.94,57.2741693 26.5866128,54.27 22.45,54.27 C18.3133872,54.27 14.96,57.2741693 14.96,60.98 C14.96,64.6858307 18.3133872,67.69 22.45,67.69 Z M90.23,59.98 L48.7961363,59.98 L48.39,59.98 L90.23,59.98 Z M99.899803,39.97 L48.89,39.97 L48.39,39.97 L99.899803,39.97 Z M99.509803,20 L48.5,20 L48,20 L99.509803,20 Z" id="Combined-Shape" stroke="#000000" stroke-width="3"></path>
    </g>
</svg>
