<?xml version="1.0" encoding="UTF-8" standalone="no"?>
<svg width="40px" height="24px" viewBox="0 0 40 24" version="1.1" xmlns="http://www.w3.org/2000/svg" xmlns:xlink="http://www.w3.org/1999/xlink">
    <!-- Generator: Sketch 42 (36781) - http://www.bohemiancoding.com/sketch -->
    <title>challenge-questions</title>
    <desc>Created by ProctorU Engineering</desc>
    <defs></defs>
    <g stroke="none" stroke-width="1" fill="none" fill-rule="evenodd">
        <g fill="#000000">
            <path d="M6,20 C4.89959541,20 4,19.1095032 4,18 C4,16.8904968 4.89959541,16 6,16 C7.10040459,16 8,16.8904968 8,18 C8,19.1095032 7.10040459,20 6,20 Z M6,19 C5.44979771,19 5,18.5547516 5,18 C5,17.4452484 5.44979771,17 6,17 C6.55020229,17 7,17.4452484 7,18 C7,18.5547516 6.55020229,19 6,19 Z M6,14 C4.89959541,14 4,13.1095032 4,12 C4,10.8904968 4.89959541,10 6,10 C7.10040459,10 8,10.8904968 8,12 C8,13.1095032 7.10040459,14 6,14 Z M6,13 C5.44979771,13 5,12.5547516 5,12 C5,11.4452484 5.44979771,11 6,11 C6.55020229,11 7,11.4452484 7,12 C7,12.5547516 6.55020229,13 6,13 Z M6,8 C4.89959541,8 4,7.10950316 4,6 C4,4.89049684 4.89959541,4 6,4 C7.10040459,4 8,4.89049684 8,6 C8,7.10950316 7.10040459,8 6,8 Z M6,7 C5.44979771,7 5,6.55475158 5,6 C5,5.44524842 5.44979771,5 6,5 C6.55020229,5 7,5.44524842 7,6 C7,6.55475158 6.55020229,7 6,7 Z M10,6 C10,5.44771525 10.4474692,5 11.0006946,5 L32.9993054,5 C33.5519738,5 34,5.44386482 34,6 L34,6 C34,6.55228475 33.5525308,7 32.9993054,7 L11.0006946,7 C10.4480262,7 10,6.55613518 10,6 L10,6 Z M10,12 C10,11.4477153 10.4474692,11 11.0006946,11 L32.9993054,11 C33.5519738,11 34,11.4438648 34,12 L34,12 C34,12.5522847 33.5525308,13 32.9993054,13 L11.0006946,13 C10.4480262,13 10,12.5561352 10,12 L10,12 Z M10,18 C10,17.4477153 10.4449463,17 10.9933977,17 L27.0066023,17 C27.5552407,17 28,17.4438648 28,18 L28,18 C28,18.5522847 27.5550537,19 27.0066023,19 L10.9933977,19 C10.4447593,19 10,18.5561352 10,18 L10,18 Z M2,3.14950916 L2,20.8504908 C2,21.4882233 2.50955503,22 3.13817697,22 L36.861823,22 C37.4886277,22 38,21.4860905 38,20.8504908 L38,3.14950916 C38,2.51177674 37.490445,2 36.861823,2 L3.13817697,2 C2.51137227,2 2,2.51390952 2,3.14950916 Z M0,3.14950916 C0,1.41154985 1.40458081,0 3.13817697,0 L36.861823,0 C38.596967,0 40,1.40915038 40,3.14950916 L40,20.8504908 C40,22.5884502 38.5954192,24 36.861823,24 L3.13817697,24 C1.40303302,24 0,22.5908496 0,20.8504908 L0,3.14950916 Z" id="Combined-Shape"></path>
            <path d="M38,17 L38,15 L31.9981014,15 C30.8945804,15 30,15.8893171 30,16.9933865 L30,22.0218099 L32,22.0218099 L32,17.992148 C32,17.4441998 32.4509752,17 32.990778,17 L38,17 Z" id="Path-2" fill-rule="nonzero"></path>
        </g>
    </g>
</svg>
