<?xml version="1.0" encoding="UTF-8" standalone="no"?>
<svg width="119px" height="81px" viewBox="0 0 119 81" version="1.1" xmlns="http://www.w3.org/2000/svg" xmlns:xlink="http://www.w3.org/1999/xlink">
    <!-- Generator: Sketch 42 (36781) - http://www.bohemiancoding.com/sketch -->
    <title>challenge-questions</title>
    <desc>Created with Sketch.</desc>
    <defs></defs>
    <g id="challenge-questions" stroke="none" stroke-width="1" fill="none" fill-rule="evenodd" stroke-linecap="square">
        <path d="M96.61,53.44 L117.13,53.44 L117.13,8 C117.13,4.15 113.65,1 109.36,1 L8.77,1 C4.48,1 1,4.12 1,8 L1,72.22 C1,76.07 4.48,79.22 8.77,79.22 L88.85,79.22 L88.85,60.41 C88.85,56.56 92.33,53.44 96.61,53.44 Z M117.15,72.22 L117.15,53.44 L96.61,53.44 C92.32,53.44 88.84,56.56 88.84,60.44 L88.84,79.22 L109.36,79.22 C113.66,79.18 117.15,76.11 117.15,72.22 Z M21.06,26.78 C25.1966128,26.78 28.55,23.7758307 28.55,20.07 C28.55,16.3641693 25.1966128,13.36 21.06,13.36 C16.9233872,13.36 13.57,16.3641693 13.57,20.07 C13.57,23.7758307 16.9233872,26.78 21.06,26.78 Z M21.06,46.79 C25.1966128,46.79 28.55,43.7858307 28.55,40.08 C28.55,36.3741693 25.1966128,33.37 21.06,33.37 C16.9233872,33.37 13.57,36.3741693 13.57,40.08 C13.57,43.7858307 16.9233872,46.79 21.06,46.79 Z M21.06,66.8 C25.1966128,66.8 28.55,63.7958307 28.55,60.09 C28.55,56.3841693 25.1966128,53.38 21.06,53.38 C16.9233872,53.38 13.57,56.3841693 13.57,60.09 C13.57,63.7958307 16.9233872,66.8 21.06,66.8 Z M88.84,59.09 L47.4061363,59.09 L47,59.09 L88.84,59.09 Z M98.509803,39.08 L47.5,39.08 L47,39.08 L98.509803,39.08 Z M98.119803,19.11 L47.11,19.11 L46.61,19.11 L98.119803,19.11 Z" id="test" stroke="#000000" stroke-width="2"></path>
    </g>
</svg>
