<?xml version="1.0" encoding="UTF-8" standalone="no"?>
<svg width="40px" height="24px" viewBox="0 0 40 24" version="1.1" xmlns="http://www.w3.org/2000/svg" xmlns:xlink="http://www.w3.org/1999/xlink">
    <!-- Generator: Sketch 42 (36781) - http://www.bohemiancoding.com/sketch -->
    <title>challenge-questions</title>
    <desc>Created by ProctorU Engineering</desc>
    <defs></defs>
    <g stroke="none" stroke-width="1" fill="none" fill-rule="evenodd">
        <g fill-rule="nonzero" fill="#000000">
            <path d="M6.5,9 C5.12449426,9 4,7.88687896 4,6.5 C4,5.11312104 5.12449426,4 6.5,4 C7.87550574,4 9,5.11312104 9,6.5 C9,7.88687896 7.87550574,9 6.5,9 Z M6.5,8 C5.67469656,8 5,7.33212737 5,6.5 C5,5.66787263 5.67469656,5 6.5,5 C7.32530344,5 8,5.66787263 8,6.5 C8,7.33212737 7.32530344,8 6.5,8 Z M6.5,15 C5.12449426,15 4,13.886879 4,12.5 C4,11.113121 5.12449426,10 6.5,10 C7.87550574,10 9,11.113121 9,12.5 C9,13.886879 7.87550574,15 6.5,15 Z M6.5,14 C5.67469656,14 5,13.3321274 5,12.5 C5,11.6678726 5.67469656,11 6.5,11 C7.32530344,11 8,11.6678726 8,12.5 C8,13.3321274 7.32530344,14 6.5,14 Z M6.5,21 C5.12449426,21 4,19.886879 4,18.5 C4,17.113121 5.12449426,16 6.5,16 C7.87550574,16 9,17.113121 9,18.5 C9,19.886879 7.87550574,21 6.5,21 Z M6.5,20 C5.67469656,20 5,19.3321274 5,18.5 C5,17.6678726 5.67469656,17 6.5,17 C7.32530344,17 8,17.6678726 8,18.5 C8,19.3321274 7.32530344,20 6.5,20 Z M10,6 C10,5.44771525 10.4474692,5 11.0006946,5 L32.9993054,5 C33.5519738,5 34,5.44386482 34,6 L34,6 C34,6.55228475 33.5525308,7 32.9993054,7 L11.0006946,7 C10.4480262,7 10,6.55613518 10,6 L10,6 Z M10,12 C10,11.4477153 10.4474692,11 11.0006946,11 L32.9993054,11 C33.5519738,11 34,11.4438648 34,12 L34,12 C34,12.5522847 33.5525308,13 32.9993054,13 L11.0006946,13 C10.4480262,13 10,12.5561352 10,12 L10,12 Z M10,18 C10,17.4477153 10.4449463,17 10.9933977,17 L27.0066023,17 C27.5552407,17 28,17.4438648 28,18 L28,18 C28,18.5522847 27.5550537,19 27.0066023,19 L10.9933977,19 C10.4447593,19 10,18.5561352 10,18 L10,18 Z M2,3.14950916 L2,20.8504908 C2,21.4882233 2.50955503,22 3.13817697,22 L36.861823,22 C37.4886277,22 38,21.4860905 38,20.8504908 L38,3.14950916 C38,2.51177674 37.490445,2 36.861823,2 L3.13817697,2 C2.51137227,2 2,2.51390952 2,3.14950916 Z M0,3.14950916 C0,1.41154985 1.40458081,0 3.13817697,0 L36.861823,0 C38.596967,0 40,1.40915038 40,3.14950916 L40,20.8504908 C40,22.5884502 38.5954192,24 36.861823,24 L3.13817697,24 C1.40303302,24 0,22.5908496 0,20.8504908 L0,3.14950916 Z" id="Combined-Shape"></path>
            <path d="M38,17 L38,15 L31.9981014,15 C30.8945804,15 30,15.8893171 30,16.9933865 L30,22.0218099 L32,22.0218099 L32,17.992148 C32,17.4441998 32.4509752,17 32.990778,17 L38,17 Z" id="Path-2" fill-rule="nonzero"></path>
        </g>
    </g>
</svg>
