<?xml version="1.0" encoding="UTF-8" standalone="no"?>
<svg width="40px" height="24px" viewBox="0 0 40 24" version="1.1" xmlns="http://www.w3.org/2000/svg" xmlns:xlink="http://www.w3.org/1999/xlink">
    <!-- Generator: Sketch 42 (36781) - http://www.bohemiancoding.com/sketch -->
    <title>id</title>
    <desc>Created By ProctorU Tech Team</desc>
    <defs></defs>
    <g stroke="none" stroke-width="1" fill="none" fill-rule="evenodd">
        <g fill="#000000">
            <path d="M26.0382362,11.2391665 C24.8249463,10.5784443 24,9.32254332 24,7.86770099 C24,5.71633397 25.8039431,4 28,4 C30.1960569,4 32,5.71633397 32,7.86770099 C32,9.27592867 31.227071,10.4977593 30.0771786,11.1738358 C33.7161005,11.8633406 36.581803,14.5337786 37.2718362,17.9213906 C37.373661,17.7062316 37.4307706,17.4648181 37.4307706,17.2097746 L37.4307706,4.63610444 C37.4307706,3.73249964 36.7147141,3 35.8314135,3 L20.5993571,3 C19.7168514,3 19,3.73250891 19,4.63610444 L19,17.2097746 C19,17.4649944 19.0571241,17.7065642 19.1590061,17.9218343 C19.829174,14.6338233 22.5505528,12.0198788 26.0382362,11.2391665 Z M36.2335585,18.793655 C35.8420492,15.0808019 32.4092038,12.1600001 28.2153853,12.1600001 C24.0228505,12.1600001 20.5890156,15.0825316 20.1972508,18.7937365 C20.3257297,18.8277708 20.4604762,18.8458791 20.5993571,18.8458791 L35.8314135,18.8458791 C35.9702794,18.8458791 36.1050435,18.8277419 36.2335585,18.793655 Z M39.9,2.61111111 L39.9,21.2111111 C39.9,21.9444444 39.6333333,22.5777778 39.1,23.1111111 C38.5666667,23.6444444 37.9333333,23.9111111 37.2,23.9111111 L2.7,23.9111111 C1.96666667,23.9111111 1.33333333,23.6444444 0.8,23.1111111 C0.266666667,22.5777778 1.48029737e-16,21.9444444 0,21.2111111 L0,2.61111111 C0,1.87777778 0.266666667,1.24444444 0.8,0.711111111 C1.33333333,0.177777778 1.96666667,-0.0555555556 2.7,0.0111111111 L37.2,0.0111111111 C37.9333333,0.0111111111 38.5666667,0.244444444 39.1,0.711111111 C39.6333333,1.17777778 39.9,1.81111111 39.9,2.61111111 Z M13.6245893,13 L5.58000004,13 C5.25967486,13 5,13.2596749 5,13.58 C5,13.9003252 5.25967486,14.1600001 5.58000004,14.1600001 L13.6245893,14.1600001 C13.9449145,14.1600001 14.2045893,13.9003252 14.2045893,13.58 C14.2045893,13.2596749 13.9449145,13 13.6245893,13 Z M13.6245893,10 L5.58000004,10 C5.25967486,10 5,10.2596749 5,10.58 C5,10.9003252 5.25967486,11.1600001 5.58000004,11.1600001 L13.6245893,11.1600001 C13.9449145,11.1600001 14.2045893,10.9003252 14.2045893,10.58 C14.2045893,10.2596749 13.9449145,10 13.6245893,10 Z M28,10.4031776 C29.5208326,10.4031776 30.7300237,9.25271129 30.7300237,7.86770099 C30.7300237,6.48269069 29.5208326,5.33222441 28,5.33222441 C26.4791674,5.33222441 25.2699763,6.48269069 25.2699763,7.86770099 C25.2699763,9.25271129 26.4791674,10.4031776 28,10.4031776 Z M13.6245893,7 L5.58000004,7 C5.25967486,7 5,7.25967486 5,7.58000004 C5,7.90032522 5.25967486,8.16000009 5.58000004,8.16000009 L13.6245893,8.16000009 C13.9449145,8.16000009 14.2045893,7.90032522 14.2045893,7.58000004 C14.2045893,7.25967486 13.9449145,7 13.6245893,7 Z" id="Combined-Shape"></path>
        </g>
    </g>
</svg>
