<?xml version="1.0" encoding="UTF-8" standalone="no"?>
<svg width="121px" height="82px" viewBox="0 0 121 82" version="1.1" xmlns="http://www.w3.org/2000/svg" xmlns:xlink="http://www.w3.org/1999/xlink">
    <!-- Generator: Sketch 42 (36781) - http://www.bohemiancoding.com/sketch -->
    <title>id</title>
    <desc>Created with Sketch.</desc>
    <defs></defs>
    <g id="Page-1" stroke="none" stroke-width="1" fill="none" fill-rule="evenodd" stroke-linecap="round" stroke-linejoin="round">
        <path d="M42.0156212,27 L41.5156212,27 L9.5,27 L9,27 M42.0156212,54 L41.5156212,54 L9.5,54 L9,54 M42.0156212,45 L41.5156212,45 L9.5,45 L9,45 M42.0156212,36 L41.5156212,36 L9.5,36 L9,36 M2.42,6.73758742 C2.42,4.00511034 4.63653467,1.79 7.37366417,1.79 L113.616336,1.79 C116.352169,1.79 118.57,4.00950447 118.57,6.73758742 L118.57,75.2224126 C118.57,77.9548897 116.353465,80.17 113.616336,80.17 L7.37366417,80.17 C4.63783099,80.17 2.42,77.9504955 2.42,75.2224126 L2.42,6.73758742 L2.42,6.73758742 M50.62,20.5113117 C50.62,17.6994579 52.9046495,15.42 55.7172496,15.42 L104.26275,15.42 C107.077884,15.42 109.36,17.6994291 109.36,20.5113117 L109.36,59.6386883 C109.36,62.4505421 107.075351,64.73 104.26275,64.73 L55.7172496,64.73 C52.9021164,64.73 50.62,62.4505709 50.62,59.6386883 L50.62,20.5113117 Z M53,63.51 C53,50.14 65.1,39.29 80,39.29 C94.9,39.29 107,50.13 107,63.51 M78.71,39.29 C83.9456594,39.29 88.19,35.4888975 88.19,30.8 C88.19,26.1111025 83.9456594,22.31 78.71,22.31 C73.4743406,22.31 69.23,26.1111025 69.23,30.8 C69.23,35.4888975 73.4743406,39.29 78.71,39.29 Z" id="Combined-Shape" stroke="#000000" stroke-width="3"></path>
    </g>
</svg>