<?xml version="1.0" encoding="UTF-8" standalone="no"?>
<svg width="119px" height="81px" viewBox="0 0 119 81" version="1.1" xmlns="http://www.w3.org/2000/svg" xmlns:xlink="http://www.w3.org/1999/xlink">
    <!-- Generator: Sketch 42 (36781) - http://www.bohemiancoding.com/sketch -->
    <title>id</title>
    <desc>Created with Sketch.</desc>
    <defs></defs>
    <g id="id" stroke="none" stroke-width="1" fill="none" fill-rule="evenodd" stroke-linecap="round" stroke-linejoin="round">
        <path d="M35.0617365,30.21 L34.6455436,30.21 L7.99619293,30.21 L7.58,30.21 M35.0617365,48.21 L34.6455436,48.21 L7.99619293,48.21 L7.58,48.21 M35.0617365,39.21 L34.6455436,39.21 L7.99619293,39.21 L7.58,39.21 M1,5.94758742 C1,3.21511034 3.21653467,1 5.95366417,1 L112.196336,1 C114.932169,1 117.15,3.21950447 117.15,5.94758742 L117.15,74.4324126 C117.15,77.1648897 114.933465,79.38 112.196336,79.38 L5.95366417,79.38 C3.21783099,79.38 1,77.1604955 1,74.4324126 L1,5.94758742 L1,5.94758742 M45,17.5755594 C45,14.496263 47.5281276,12 50.6404703,12 L104.35953,12 C107.474675,12 110,14.4962314 110,17.5755594 L110,60.4244406 C110,63.503737 107.471872,66 104.35953,66 L50.6404703,66 C47.5253246,66 45,63.5037686 45,60.4244406 L45,17.5755594 Z M48,65 C48,50.0953757 61.2203704,38 77.5,38 C93.7796296,38 107,50.0842279 107,65 M76.5,37 C82.2989899,37 87,32.7467051 87,27.5 C87,22.2532949 82.2989899,18 76.5,18 C70.7010101,18 66,22.2532949 66,27.5 C66,32.7467051 70.7010101,37 76.5,37 Z" id="identification" stroke="#000000" stroke-width="2"></path>
    </g>
</svg>
