<?xml version="1.0" encoding="UTF-8" standalone="no"?>
<svg width="120px" height="84px" viewBox="0 0 120 84" version="1.1" xmlns="http://www.w3.org/2000/svg" xmlns:xlink="http://www.w3.org/1999/xlink">
    <!-- Generator: Sketch 42 (36781) - http://www.bohemiancoding.com/sketch -->
    <title>keyboard</title>
    <desc>Created ProctorU Dev Team</desc>
    <defs></defs>
    <g id="Page-1" stroke="none" stroke-width="1" fill="none" fill-rule="evenodd" stroke-linecap="round">
        <path d="M118.18,7 L118.18,77 C118.024005,79.7967904 115.63754,81.9419275 112.84,81.8 L7.15,81.8 C4.35627076,81.9362404 1.97604036,79.7926933 1.82,77 L1.82,7 C1.97604036,4.20730669 4.35627076,2.06375961 7.15,2.2 L112.84,2.2 C115.63754,2.05807251 118.024005,4.20320965 118.18,7 L118.18,7 Z M96.45,32.515 L96.45,36.35 C96.5253246,37.7551985 97.7247184,38.8337578 99.13,38.76 L108.32,38.76 C109.725282,38.8337578 110.924675,37.7551985 111,36.35 L111,28.68 C110.919333,27.2773619 109.723301,26.201825 108.32,26.27 L99.13,26.27 C97.7266992,26.201825 96.5306666,27.2773619 96.45,28.68 L96.45,32.515 L96.45,36.35 C96.5253246,37.7551985 97.7247184,38.8337578 99.13,38.76 L108.32,38.76 C109.725282,38.8337578 110.924675,37.7551985 111,36.35 L111,28.68 L111,28.68 C110.919333,27.2773619 109.723301,26.201825 108.32,26.27 L99.13,26.27 C97.7266992,26.201825 96.5306666,27.2773619 96.45,28.68 L96.45,32.515 Z M24.49,64.82 L24.49,64.82 C24.4201121,63.5584385 23.341657,62.5918563 22.08,62.66 L12.33,62.66 C11.0721512,62.5975611 9.99994542,63.5625462 9.93,64.82 L9.93,73 C9.99994542,74.2574538 11.0721512,75.2224389 12.33,75.16 L22.09,75.16 C23.3478488,75.2224389 24.4200546,74.2574538 24.49,73 L24.49,64.82 Z M21.71,21.2 L21.71,21.2 C23.2420663,21.2681448 24.5438816,20.0911611 24.63,18.56 L24.63,11.35 C24.5439511,9.81066225 23.2296904,8.63050976 21.69,8.71 L13,8.71 C11.4603096,8.63050976 10.1460489,9.81066225 10.06,11.35 L10.06,18.56 C10.1460489,20.0993378 11.4603096,21.2794902 13,21.2 L21.71,21.2 Z M43.25,21.2 C44.7934964,21.2852064 46.114016,20.1034532 46.2,18.56 L46.2,11.35 C46.1139511,9.81066225 44.7996904,8.63050976 43.26,8.71 L34.57,8.71 C33.0303096,8.63050976 31.7160489,9.81066225 31.63,11.35 L31.63,18.56 C31.7160489,20.0993378 33.0303096,21.2794902 34.57,21.2 L43.25,21.2 Z M64.8,21.2 L64.8,21.2 C66.3396904,21.2794902 67.6539511,20.0993378 67.74,18.56 L67.74,11.35 C67.6539511,9.81066225 66.3396904,8.63050976 64.8,8.71 L56.11,8.71 C54.5703096,8.63050976 53.2560489,9.81066225 53.17,11.35 L53.17,18.56 C53.2560489,20.0993378 54.5703096,21.2794902 56.11,21.2 L64.8,21.2 Z M86.34,21.2 C87.8834964,21.2852064 89.204016,20.1034532 89.29,18.56 L89.29,11.35 C89.2039511,9.81066225 87.8896904,8.63050976 86.35,8.71 L77.66,8.71 C76.1203096,8.63050976 74.8060489,9.81066225 74.72,11.35 L74.72,18.56 C74.8060489,20.0993378 76.1203096,21.2794902 77.66,21.2 L86.34,21.2 Z M107.89,21.2 C109.42969,21.2794902 110.743951,20.0993378 110.83,18.56 L110.83,11.35 C110.743951,9.81066225 109.42969,8.63050976 107.89,8.71 L99.2,8.71 C97.6603096,8.63050976 96.3460489,9.81066225 96.26,11.35 L96.26,18.56 C96.3460489,20.0993378 97.6603096,21.2794902 99.2,21.2 L107.89,21.2 Z M29.37,36.28 L29.37,28.77 C29.2893026,27.3135843 28.046782,26.1962097 26.59,26.27 L12.87,26.27 C11.413218,26.1962097 10.1706974,27.3135843 10.09,28.77 L10.09,36.26 C10.1706974,37.7164157 11.413218,38.8337903 12.87,38.76 L26.59,38.76 C28.0430988,38.8339183 29.2840312,37.7224357 29.37,36.27 L29.37,36.28 Z M44.9,54.28 L44.9,47.14 C44.861375,46.3853852 44.5225828,45.6775527 43.9590837,45.1741601 C43.3955845,44.6707675 42.6541781,44.4136226 41.9,44.46 L33.32,44.46 C32.5664866,44.4163488 31.8265909,44.6744424 31.2637077,45.1772847 C30.7008245,45.6801271 30.3612593,46.3863518 30.32,47.14 L30.32,54.28 C30.3612593,55.0336482 30.7008245,55.7398729 31.2637077,56.2427153 C31.8265909,56.7455576 32.5664866,57.0036512 33.32,56.96 L41.93,56.96 C43.4879564,57.0337745 44.8138752,55.8373225 44.9,54.28 L44.9,54.28 Z M49.74,36.12 L49.74,28.91 C49.6486397,27.3732172 48.3377196,26.1960645 46.8,26.27 L38.12,26.27 C36.5822804,26.1960645 35.2713603,27.3732172 35.18,28.91 L35.18,36.12 C35.2660489,37.6593378 36.5803096,38.8394902 38.12,38.76 L46.8,38.76 C48.3396904,38.8394902 49.6539511,37.6593378 49.74,36.12 L49.74,36.12 Z M65.32,54.8 L65.32,46.62 C65.2500546,45.3625462 64.1778488,44.3975611 62.92,44.46 L53.16,44.46 C51.9021512,44.3975611 50.8299454,45.3625462 50.76,46.62 L50.76,54.8 C50.7833083,55.411132 51.0501008,55.9875498 51.5009269,56.400807 C51.9517529,56.8140642 52.5491511,57.0298214 53.16,57 L62.92,57 C63.5301495,57.0271061 64.1260263,56.8104205 64.5762441,56.3977208 C65.0264619,55.9850211 65.2940474,55.4101996 65.32,54.8 Z M70.16,36.06 L70.16,29 C70.0738524,27.4261158 68.7345137,26.2162465 67.16,26.29 L58.6,26.29 C57.0254863,26.2162465 55.6861476,27.4261158 55.6,29 L55.6,36.08 C55.6807935,37.6564345 57.0234916,38.8693384 58.6,38.79 L67.15,38.79 C67.9114045,38.8280498 68.6566625,38.5616018 69.2213531,38.0494406 C69.7860437,37.5372793 70.1237621,36.8214929 70.16,36.06 L70.16,36.06 Z M85.73,54.65 L85.73,46.77 C85.6546942,45.4241054 84.5062769,44.3918704 83.16,44.46 L73.73,44.46 C72.3837231,44.3918704 71.2353058,45.4241054 71.16,46.77 L71.16,54.65 C71.1858879,55.3035971 71.4720614,55.9197037 71.9547864,56.3611059 C72.4375114,56.8025081 73.0767008,57.0325505 73.73,57 L83.16,57 C83.8132992,57.0325505 84.4524886,56.8025081 84.9352136,56.3611059 C85.4179386,55.9197037 85.7041121,55.3035971 85.73,54.65 Z M85.73,72.87 L85.73,64.93 C85.6547883,63.6020698 84.5180052,62.5861259 83.19,62.66 L32.88,62.66 C31.5519948,62.5861259 30.4152117,63.6020698 30.34,64.93 L30.34,72.87 C30.4205445,74.1953538 31.5539582,75.2082864 32.88,75.14 L83.2,75.14 C84.5222353,75.202623 85.6494335,74.1912634 85.73,72.87 Z M90.57,36 L90.57,29 C90.478589,27.4256898 89.1459303,26.2129704 87.57,26.27 L79,26.27 C77.4220861,26.20754 76.0861912,27.4232044 76,29 L76,36 C76.0861912,37.5767956 77.4220861,38.79246 79,38.73 L87.49,38.73 C88.2611244,38.7791985 89.0199974,38.5186231 89.5982393,38.0060905 C90.1764812,37.4935579 90.5262721,36.771454 90.57,36 Z M110.84,54.87 L110.84,46.55 C110.77012,45.3367064 109.733696,44.407499 108.52,44.47 L93.86,44.47 C92.6463039,44.407499 91.6098803,45.3367064 91.54,46.55 L91.54,54.88 C91.563288,55.4699273 91.8216485,56.0260116 92.2574779,56.4242695 C92.6933072,56.8225273 93.2703681,57.0298452 93.86,57 L108.51,57 C109.100599,57.0270927 109.677608,56.8174853 110.113117,56.4176435 C110.548625,56.0178017 110.806653,55.4607588 110.83,54.87 L110.84,54.87 Z M110.84,72.94 L110.84,64.84 C110.764755,63.5644439 109.676242,62.5874585 108.4,62.65 L93,62.65 C91.723758,62.5874585 90.6352446,63.5644439 90.56,64.84 L90.56,72.94 C90.6299764,74.2195345 91.7200741,75.2024095 93,75.14 L108.37,75.14 C109.653849,75.213947 110.754859,74.23378 110.83,72.95 L110.84,72.94 Z M24.49,46.81 L24.49,46.81 C24.3937681,45.459377 23.2320013,44.4355978 21.88,44.51 L12.53,44.51 C11.1633571,44.4361857 9.99526969,45.4834365 9.92,46.85 L9.92,54.65 C9.99533727,56.0179746 11.161646,57.0680993 12.53,57 L21.88,57 C22.5439074,57.0325387 23.1932655,56.7982768 23.6834889,56.3493749 C24.1737123,55.9004731 24.4641019,55.2741996 24.49,54.61 L24.49,46.81 Z" id="keyboard" stroke="#231F20" stroke-width="2.5550462"></path>
    </g>
</svg>
