<?xml version="1.0" encoding="UTF-8" standalone="no"?>
<svg width="119px" height="82px" viewBox="0 0 119 82" version="1.1" xmlns="http://www.w3.org/2000/svg" xmlns:xlink="http://www.w3.org/1999/xlink">
    <!-- Generator: Sketch 42 (36781) - http://www.bohemiancoding.com/sketch -->
    <title>keyboard</title>
    <desc>Created with Sketch.</desc>
    <defs></defs>
    <g id="keyboard" stroke="none" stroke-width="1" fill="none" fill-rule="evenodd" stroke-linecap="round">
        <path d="M117.36,5.80665534 L117.36,75.8066553 C117.204005,78.6034457 114.81754,80.7485828 112.02,80.6066553 L6.33,80.6066553 C3.53627076,80.7428957 1.15604036,78.5993486 1,75.8066553 L1,5.80665534 C1.15604036,3.01396203 3.53627076,0.870414955 6.33,1.00665534 L112.02,1.00665534 C114.81754,0.86472785 117.204005,3.00986499 117.36,5.80665534 L117.36,5.80665534 Z M23.67,59.6266553 L23.67,59.6266553 C23.6001121,58.3650938 22.521657,57.3985116 21.26,57.4666553 L11.51,57.4666553 C10.2521512,57.4042164 9.17994542,58.3692016 9.11,59.6266553 L9.11,67.8066553 C9.17994542,69.0641091 10.2521512,70.0290943 11.51,69.9666553 L21.27,69.9666553 C22.5278488,70.0290943 23.6000546,69.0641091 23.67,67.8066553 L23.67,59.6266553 Z M28.55,23.0866553 L28.55,15.5766553 C28.4693026,14.1202396 27.226782,13.002865 25.77,13.0766553 L12.05,13.0766553 C10.593218,13.002865 9.35069742,14.1202396 9.27,15.5766553 L9.27,23.0666553 C9.35069742,24.523071 10.593218,25.6404457 12.05,25.5666553 L25.77,25.5666553 C27.2230988,25.6405736 28.4640312,24.529091 28.55,23.0766553 L28.55,23.0866553 Z M44.08,46.0866553 L44.08,38.9466553 C44.041375,38.1920405 43.7025828,37.484208 43.1390837,36.9808154 C42.5755845,36.4774228 41.8341781,36.2202779 41.08,36.2666553 L32.5,36.2666553 C31.7464866,36.2230042 31.0065909,36.4810977 30.4437077,36.9839401 C29.8808245,37.4867824 29.5412593,38.1930071 29.5,38.9466553 L29.5,46.0866553 C29.5412593,46.8403035 29.8808245,47.5465283 30.4437077,48.0493706 C31.0065909,48.5522129 31.7464866,48.8103065 32.5,48.7666553 L41.11,48.7666553 C42.6679564,48.8404298 43.9938752,47.6439778 44.08,46.0866553 L44.08,46.0866553 Z M48.92,22.9266553 L48.92,15.7166553 C48.8286397,14.1798726 47.5177196,13.0027199 45.98,13.0766553 L37.3,13.0766553 C35.7622804,13.0027199 34.4513603,14.1798726 34.36,15.7166553 L34.36,22.9266553 C34.4460489,24.4659931 35.7603096,25.6461456 37.3,25.5666553 L45.98,25.5666553 C47.5196904,25.6461456 48.8339511,24.4659931 48.92,22.9266553 L48.92,22.9266553 Z M64.5,46.6066553 L64.5,38.4266553 C64.4300546,37.1692016 63.3578488,36.2042164 62.1,36.2666553 L52.34,36.2666553 C51.0821512,36.2042164 50.0099454,37.1692016 49.94,38.4266553 L49.94,46.6066553 C49.9633083,47.2177874 50.2301008,47.7942052 50.6809269,48.2074624 C51.1317529,48.6207196 51.7291511,48.8364767 52.34,48.8066553 L62.1,48.8066553 C62.7101495,48.8337614 63.3060263,48.6170758 63.7562441,48.2043762 C64.2064619,47.7916765 64.4740474,47.216855 64.5,46.6066553 Z M69.34,22.8666553 L69.34,15.8066553 C69.2538524,14.2327711 67.9145137,13.0229018 66.34,13.0966553 L57.78,13.0966553 C56.2054863,13.0229018 54.8661476,14.2327711 54.78,15.8066553 L54.78,22.8866553 C54.8607935,24.4630899 56.2034916,25.6759938 57.78,25.5966553 L66.33,25.5966553 C67.0914045,25.6347051 67.8366625,25.3682572 68.4013531,24.8560959 C68.9660437,24.3439347 69.3037621,23.6281482 69.34,22.8666553 L69.34,22.8666553 Z M84.91,46.4566553 L84.91,38.5766553 C84.8346942,37.2307608 83.6862769,36.1985257 82.34,36.2666553 L72.91,36.2666553 C71.5637231,36.1985257 70.4153058,37.2307608 70.34,38.5766553 L70.34,46.4566553 C70.3658879,47.1102524 70.6520614,47.726359 71.1347864,48.1677613 C71.6175114,48.6091635 72.2567008,48.8392058 72.91,48.8066553 L82.34,48.8066553 C82.9932992,48.8392058 83.6324886,48.6091635 84.1152136,48.1677613 C84.5979386,47.726359 84.8841121,47.1102524 84.91,46.4566553 Z M84.91,67.6766553 L84.91,59.7366553 C84.8347883,58.4087252 83.6980052,57.3927812 82.37,57.4666553 L32.06,57.4666553 C30.7319948,57.3927812 29.5952117,58.4087252 29.52,59.7366553 L29.52,67.6766553 C29.6005445,69.0020091 30.7339582,70.0149418 32.06,69.9466553 L82.38,69.9466553 C83.7022353,70.0092784 84.8294335,68.9979187 84.91,67.6766553 Z M89.75,22.8066553 L89.75,15.8066553 C89.658589,14.2323451 88.3259303,13.0196257 86.75,13.0766553 L78.18,13.0766553 C76.6020861,13.0141954 75.2661912,14.2298597 75.18,15.8066553 L75.18,22.8066553 C75.2661912,24.383451 76.6020861,25.5991153 78.18,25.5366553 L86.67,25.5366553 C87.4411244,25.5858539 88.1999974,25.3252784 88.7782393,24.8127458 C89.3564812,24.3002132 89.7062721,23.5781093 89.75,22.8066553 Z M110.02,46.6766553 L110.02,38.3566553 C109.95012,37.1433617 108.913696,36.2141544 107.7,36.2766553 L93.04,36.2766553 C91.8263039,36.2141544 90.7898803,37.1433617 90.72,38.3566553 L90.72,46.6866553 C90.743288,47.2765826 91.0016485,47.832667 91.4374779,48.2309248 C91.8733072,48.6291827 92.4503681,48.8365006 93.04,48.8066553 L107.69,48.8066553 C108.280599,48.833748 108.857608,48.6241406 109.293117,48.2242988 C109.728625,47.8244571 109.986653,47.2674141 110.01,46.6766553 L110.02,46.6766553 Z M110.02,67.7466553 L110.02,59.6466553 C109.944755,58.3710993 108.856242,57.3941139 107.58,57.4566553 L92.18,57.4566553 C90.903758,57.3941139 89.8152446,58.3710993 89.74,59.6466553 L89.74,67.7466553 C89.8099764,69.0261898 90.9000741,70.0090649 92.18,69.9466553 L107.55,69.9466553 C108.833849,70.0206023 109.934859,69.0404353 110.01,67.7566553 L110.02,67.7466553 Z M110.18,23.1566553 L110.18,15.4866553 C110.099333,14.0840172 108.903301,13.0084804 107.5,13.0766553 L98.31,13.0766553 C96.9066992,13.0084804 95.7106666,14.0840172 95.63,15.4866553 L95.63,23.1566553 C95.7053246,24.5618539 96.9047184,25.6404132 98.31,25.5666553 L107.5,25.5666553 C108.905282,25.6404132 110.104675,24.5618539 110.18,23.1566553 Z M23.67,38.6166553 L23.67,38.6166553 C23.5737681,37.2660323 22.4120013,36.2422531 21.06,36.3166553 L11.71,36.3166553 C10.3433571,36.242841 9.17526969,37.2900918 9.1,38.6566553 L9.1,46.4566553 C9.17533727,47.82463 10.341646,48.8747547 11.71,48.8066553 L21.06,48.8066553 C21.7239074,48.839194 22.3732655,48.6049321 22.8634889,48.1560303 C23.3537123,47.7071284 23.6441019,47.080855 23.67,46.4166553 L23.67,38.6166553 Z" id="keyboard" stroke="#231F20" stroke-width="2"></path>
    </g>
</svg>
