<?xml version="1.0" encoding="UTF-8" standalone="no"?>
<svg width="40px" height="24px" viewBox="0 0 40 24" version="1.1" xmlns="http://www.w3.org/2000/svg" xmlns:xlink="http://www.w3.org/1999/xlink">
    <!-- Generator: Sketch 42 (36781) - http://www.bohemiancoding.com/sketch -->
    <title>keyboard</title>
    <desc>Created By ProctorU Tech Team</desc>
    <defs></defs>
    <g stroke="none" stroke-width="1" fill="none" fill-rule="evenodd">
        <g fill="#000000">
            <path d="M12,16.9989566 C12,16.4472481 12.4446309,16 13.0008717,16 L26.9991283,16 C27.5518945,16 28,16.4426603 28,16.9989566 L28,18.0010434 C28,18.5527519 27.5553691,19 26.9991283,19 L13.0008717,19 C12.4481055,19 12,18.5573397 12,18.0010434 L12,16.9989566 Z M39.9,3 L39.9,21.6 C39.9,22.3333333 39.6333333,22.9666667 39.1,23.5 C38.5666667,24.0333333 37.9333333,24.3 37.2,24.3 L2.7,24.3 C1.96666667,24.3 1.33333333,24.0333333 0.8,23.5 C0.266666667,22.9666667 1.48029737e-16,22.3333333 0,21.6 L0,3 C0,2.26666667 0.266666667,1.63333333 0.8,1.1 C1.33333333,0.566666667 1.96666667,0.333333333 2.7,0.4 L37.2,0.4 C37.9333333,0.4 38.5666667,0.633333333 39.1,1.1 C39.6333333,1.56666667 39.9,2.2 39.9,3 Z M33.9637332,8.43870329 L33.9637332,6.31920847 C33.940856,5.93160947 33.601658,5.63440025 33.2036782,5.65323943 L30.5973702,5.65323943 C30.1993905,5.63440025 29.8601925,5.93160947 29.8373152,6.31920847 L29.8373152,8.43870329 C29.8586775,8.82700981 30.1988287,9.12505425 30.5973702,9.10467233 L33.2036782,9.10467233 C33.6022198,9.12505425 33.942371,8.82700981 33.9637332,8.43870329 Z M27.9637332,8.43870329 L27.9637332,6.31920847 C27.940856,5.93160947 27.601658,5.63440025 27.2036782,5.65323943 L24.5973702,5.65323943 C24.1993905,5.63440025 23.8601925,5.93160947 23.8373152,6.31920847 L23.8373152,8.43870329 C23.8586775,8.82700981 24.1988287,9.12505425 24.5973702,9.10467233 L27.2036782,9.10467233 C27.6022198,9.12505425 27.942371,8.82700981 27.9637332,8.43870329 Z M21.9637332,8.43870329 L21.9637332,6.31920847 C21.940856,5.93160947 21.601658,5.63440025 21.2036782,5.65323943 L18.5973702,5.65323943 C18.1993905,5.63440025 17.8601925,5.93160947 17.8373152,6.31920847 L17.8373152,8.43870329 C17.8586775,8.82700981 18.1988287,9.12505425 18.5973702,9.10467233 L21.2036782,9.10467233 C21.6022198,9.12505425 21.942371,8.82700981 21.9637332,8.43870329 Z M15.9637332,8.43870329 L15.9637332,6.31920847 C15.940856,5.93160947 15.601658,5.63440025 15.2036782,5.65323943 L12.5973702,5.65323943 C12.1993905,5.63440025 11.8601925,5.93160947 11.8373152,6.31920847 L11.8373152,8.43870329 C11.8586775,8.82700981 12.1988287,9.12505425 12.5973702,9.10467233 L15.2036782,9.10467233 C15.6022198,9.12505425 15.942371,8.82700981 15.9637332,8.43870329 Z M9.96373324,8.43870329 L9.96373324,6.31920847 C9.94085599,5.93160947 9.601658,5.63440025 9.20367824,5.65323943 L6.59737023,5.65323943 C6.19939047,5.63440025 5.86019248,5.93160947 5.83731523,6.31920847 L5.83731523,8.43870329 C5.85867749,8.82700981 6.19882869,9.12505425 6.59737023,9.10467233 L9.20367824,9.10467233 C9.60221978,9.12505425 9.94237098,8.82700981 9.96373324,8.43870329 Z M33.9637332,13.4387033 L33.9637332,11.3192085 C33.940856,10.9316095 33.601658,10.6344002 33.2036782,10.6532394 L30.5973702,10.6532394 C30.1993905,10.6344002 29.8601925,10.9316095 29.8373152,11.3192085 L29.8373152,13.4387033 C29.8586775,13.8270098 30.1988287,14.1250543 30.5973702,14.1046723 L33.2036782,14.1046723 C33.6022198,14.1250543 33.942371,13.8270098 33.9637332,13.4387033 Z M27.9637332,13.4387033 L27.9637332,11.3192085 C27.940856,10.9316095 27.601658,10.6344002 27.2036782,10.6532394 L24.5973702,10.6532394 C24.1993905,10.6344002 23.8601925,10.9316095 23.8373152,11.3192085 L23.8373152,13.4387033 C23.8586775,13.8270098 24.1988287,14.1250543 24.5973702,14.1046723 L27.2036782,14.1046723 C27.6022198,14.1250543 27.942371,13.8270098 27.9637332,13.4387033 Z M21.9637332,13.4387033 L21.9637332,11.3192085 C21.940856,10.9316095 21.601658,10.6344002 21.2036782,10.6532394 L18.5973702,10.6532394 C18.1993905,10.6344002 17.8601925,10.9316095 17.8373152,11.3192085 L17.8373152,13.4387033 C17.8586775,13.8270098 18.1988287,14.1250543 18.5973702,14.1046723 L21.2036782,14.1046723 C21.6022198,14.1250543 21.942371,13.8270098 21.9637332,13.4387033 Z M15.9637332,13.4387033 L15.9637332,11.3192085 C15.940856,10.9316095 15.601658,10.6344002 15.2036782,10.6532394 L12.5973702,10.6532394 C12.1993905,10.6344002 11.8601925,10.9316095 11.8373152,11.3192085 L11.8373152,13.4387033 C11.8586775,13.8270098 12.1988287,14.1250543 12.5973702,14.1046723 L15.2036782,14.1046723 C15.6022198,14.1250543 15.942371,13.8270098 15.9637332,13.4387033 Z M9.96373324,13.4387033 L9.96373324,11.3192085 C9.94085599,10.9316095 9.601658,10.6344002 9.20367824,10.6532394 L6.59737023,10.6532394 C6.19939047,10.6344002 5.86019248,10.9316095 5.83731523,11.3192085 L5.83731523,13.4387033 C5.85867749,13.8270098 6.19882869,14.1250543 6.59737023,14.1046723 L9.20367824,14.1046723 C9.60221978,14.1250543 9.94237098,13.8270098 9.96373324,13.4387033 Z M33.9637332,18.4387033 L33.9637332,16.3192085 C33.940856,15.9316095 33.601658,15.6344002 33.2036782,15.6532394 L30.5973702,15.6532394 C30.1993905,15.6344002 29.8601925,15.9316095 29.8373152,16.3192085 L29.8373152,18.4387033 C29.8586775,18.8270098 30.1988287,19.1250543 30.5973702,19.1046723 L33.2036782,19.1046723 C33.6022198,19.1250543 33.942371,18.8270098 33.9637332,18.4387033 Z M9.96373324,18.4387033 L9.96373324,16.3192085 C9.94085599,15.9316095 9.601658,15.6344002 9.20367824,15.6532394 L6.59737023,15.6532394 C6.19939047,15.6344002 5.86019248,15.9316095 5.83731523,16.3192085 L5.83731523,18.4387033 C5.85867749,18.8270098 6.19882869,19.1250543 6.59737023,19.1046723 L9.20367824,19.1046723 C9.60221978,19.1250543 9.94237098,18.8270098 9.96373324,18.4387033 Z M0,0 L40,0 L40,24 L0,24 L0,0 Z M0,0 L40,0 L40,24 L0,24 L0,0 Z M37.2,21.6 L37.2,3 L2.7,3 L2.7,21.6 L37.2,21.6 Z" id="Combined-Shape"></path>
        </g>
    </g>
</svg>
